<svg width="14" height="14" viewBox="0 0 14 14" fill="none" xmlns="http://www.w3.org/2000/svg">
<path d="M2.64645 5.64645C2.45118 5.84171 2.45118 6.15829 2.64645 6.35355L5.82843 9.53553C6.02369 9.7308 6.34027 9.7308 6.53553 9.53553C6.7308 9.34027 6.7308 9.02369 6.53553 8.82843L3.70711 6L6.53553 3.17157C6.7308 2.97631 6.7308 2.65973 6.53553 2.46447C6.34027 2.2692 6.02369 2.2692 5.82843 2.46447L2.64645 5.64645ZM3 10.5C2.72386 10.5 2.5 10.7239 2.5 11C2.5 11.2761 2.72386 11.5 3 11.5V10.5ZM10.5 8.5C10.5 8.77614 10.7239 9 11 9C11.2761 9 11.5 8.77614 11.5 8.5H10.5ZM3 6.5H8.5V5.5H3V6.5ZM8.5 10.5H3V11.5H8.5V10.5ZM10.5 8.5C10.5 9.60457 9.60457 10.5 8.5 10.5V11.5C10.1569 11.5 11.5 10.1569 11.5 8.5H10.5ZM8.5 6.5C9.60457 6.5 10.5 7.39543 10.5 8.5H11.5C11.5 6.84315 10.1569 5.5 8.5 5.5V6.5Z" fill="white"/>
</svg>
