<svg width="30" height="30" viewBox="0 0 30 30" fill="none" xmlns="http://www.w3.org/2000/svg">
<path d="M3.75488 28L12.8199 15.225L4.45488 3.5H8.82988L12.2949 8.505C12.9716 9.50833 13.4382 10.395 13.6949 11.165C13.9516 11.9117 14.1032 12.8217 14.1499 13.895H15.6199C15.6899 12.985 15.8532 12.1333 16.1099 11.34C16.3666 10.64 16.8799 9.73 17.6499 8.61L21.2199 3.5H25.3849L17.1599 15.085L26.2249 28H21.8499L17.6149 21.735C16.8915 20.685 16.4249 19.81 16.2149 19.11C16.0282 18.41 15.9116 17.5233 15.8649 16.45H14.3599C14.3366 17.3133 14.1732 18.13 13.8699 18.9C13.5665 19.67 13.0299 20.615 12.2599 21.735L7.95488 28H3.75488Z" fill="white"/>
</svg>
