<svg width="6" height="8" viewBox="0 0 6 8" fill="none" xmlns="http://www.w3.org/2000/svg">
<path fill-rule="evenodd" clip-rule="evenodd" d="M0.75 1C0.75 0.861929 0.861929 0.75 1 0.75H5C5.13807 0.75 5.25 0.861929 5.25 1V7C5.25 7.13807 5.13807 7.25 5 7.25H1C0.861929 7.25 0.75 7.13807 0.75 7V1ZM1.25 1.25V6.75H4.5L3.11056 6.05528C3.0428 6.0214 3 5.95215 3 5.87639V2.12361C3 2.04785 3.0428 1.9786 3.11056 1.94472L4.5 1.25H1.25ZM3.375 4C3.30596 4 3.25 4.05596 3.25 4.125C3.25 4.19404 3.30596 4.25 3.375 4.25H3.379C3.44804 4.25 3.504 4.19404 3.504 4.125C3.504 4.05596 3.44804 4 3.379 4H3.375Z" fill="white"/>
</svg>
