<svg width="64" height="64" viewBox="0 0 64 64" fill="none" xmlns="http://www.w3.org/2000/svg">
<rect x="1.25" y="1.25" width="61.5" height="61.5" rx="30.75" fill="#000626"/>
<path d="M38.074 15.4349C34.4068 14.5828 30.5931 14.5828 26.926 15.4349C24.808 14.1359 23.191 13.5389 22.015 13.2869C21.5131 13.1736 20.9995 13.1203 20.485 13.1279C20.2509 13.1343 20.0179 13.1624 19.789 13.2119L19.759 13.2179L19.747 13.2239H19.738L20.149 14.6669L19.738 13.2269C19.5272 13.2865 19.3321 13.3915 19.1662 13.5345C19.0004 13.6776 18.8679 13.8552 18.778 14.0549C17.8929 16.037 17.7243 18.2652 18.301 20.3579C16.8074 22.168 15.9935 24.4432 16 26.7899C16 31.4489 17.374 34.5809 19.717 36.5939C21.358 38.0039 23.35 38.7539 25.348 39.1829C25.0336 40.1063 24.9151 41.0851 25 42.0569V43.8509C23.779 44.1059 22.933 44.0249 22.33 43.8269C21.577 43.5779 20.998 43.0769 20.443 42.3569C20.1529 41.9688 19.8825 41.5663 19.633 41.1509L19.462 40.8719C19.2461 40.5129 19.022 40.1588 18.79 39.8099C18.22 38.9669 17.374 37.9109 16.006 37.5509V37.5509C15.2041 37.3405 14.3834 37.82 14.173 38.6219V38.6219C13.9626 39.4238 14.4421 40.2445 15.244 40.4549V40.4549C15.484 40.5149 15.796 40.7399 16.309 41.4929C16.5064 41.7902 16.6965 42.0923 16.879 42.3989L17.083 42.7289C17.365 43.1849 17.689 43.6889 18.064 44.1809C18.823 45.1709 19.858 46.1699 21.394 46.6769C22.444 47.0249 23.638 47.1089 25 46.8989V52.4999C25 52.8977 25.158 53.2793 25.4393 53.5606C25.7206 53.8419 26.1022 53.9999 26.5 53.9999H38.5C38.8978 53.9999 39.2793 53.8419 39.5607 53.5606C39.842 53.2793 40 52.8977 40 52.4999V41.8109C40 40.8659 39.958 39.9989 39.691 39.1919C41.68 38.7719 43.657 38.0219 45.289 36.6119C47.629 34.5839 49 31.4219 49 26.7359V26.7329C48.9924 24.4054 48.1782 22.1525 46.696 20.3579C47.272 18.2661 47.1034 16.0392 46.219 14.0579C46.1298 13.8579 45.9979 13.6799 45.8326 13.5364C45.6672 13.3928 45.4725 13.2872 45.262 13.2269L44.851 14.6669C45.262 13.2269 45.259 13.2269 45.256 13.2269L45.25 13.2239L45.238 13.2179L45.211 13.2119C45.1369 13.1927 45.0618 13.1776 44.986 13.1669C44.829 13.144 44.6707 13.131 44.512 13.1279C43.9975 13.1203 43.4839 13.1737 42.982 13.2869C41.809 13.5389 40.192 14.1359 38.074 15.4349Z" fill="white"/>
<rect x="1.25" y="1.25" width="61.5" height="61.5" rx="30.75" stroke="#001382" stroke-width="2.5"/>
</svg>
