<svg width="64" height="64" viewBox="0 0 64 64" fill="none" xmlns="http://www.w3.org/2000/svg">
<rect x="1.25" y="1.25" width="61.5" height="61.5" rx="30.75" fill="#000626"/>
<path d="M27.6001 24.6999C28.7201 24.6999 29.6201 23.7999 29.6201 22.6799C29.6201 21.5599 28.7201 20.6599 27.6001 20.6599C26.4801 20.6599 25.5801 21.5599 25.5801 22.6799C25.5801 23.7999 26.4801 24.6999 27.6001 24.6999Z" fill="white"/>
<path fill-rule="evenodd" clip-rule="evenodd" d="M31.66 29.0999C31.66 26.9399 29.84 25.3799 27.6 25.3799C25.36 25.3799 23.54 26.9399 23.54 29.0999V30.1199C23.54 30.2999 23.62 30.4799 23.74 30.5999C23.86 30.7199 24.04 30.7999 24.22 30.7999H30.98C31.16 30.7999 31.34 30.7199 31.46 30.5999C31.58 30.4799 31.66 30.2999 31.66 30.1199V29.0999ZM23.5 34.9999C23.5 34.6021 23.658 34.2205 23.9393 33.9392C24.2206 33.6579 24.6022 33.4999 25 33.4999H39C39.3978 33.4999 39.7794 33.6579 40.0607 33.9392C40.342 34.2205 40.5 34.6021 40.5 34.9999C40.5 35.3977 40.342 35.7792 40.0607 36.0605C39.7794 36.3418 39.3978 36.4999 39 36.4999H25C24.6022 36.4999 24.2206 36.3418 23.9393 36.0605C23.658 35.7792 23.5 35.3977 23.5 34.9999ZM23.5 40.9999C23.5 40.6021 23.658 40.2205 23.9393 39.9392C24.2206 39.6579 24.6022 39.4999 25 39.4999H39C39.3978 39.4999 39.7794 39.6579 40.0607 39.9392C40.342 40.2205 40.5 40.6021 40.5 40.9999C40.5 41.3977 40.342 41.7792 40.0607 42.0605C39.7794 42.3418 39.3978 42.4999 39 42.4999H25C24.6022 42.4999 24.2206 42.3418 23.9393 42.0605C23.658 41.7792 23.5 41.3977 23.5 40.9999Z" fill="white"/>
<path fill-rule="evenodd" clip-rule="evenodd" d="M17 17C17 14.796 18.796 13 21 13H34.38C35.504 13 36.564 13.476 37.31 14.262L37.322 14.276L45.946 23.68C46.664 24.446 47 25.448 47 26.4V47C47 49.204 45.204 51 43 51H21C18.796 51 17 49.204 17 47V17ZM34.378 17H21V47H43V26.384L34.408 17.014L34.402 17.012C34.3947 17.0067 34.3866 17.0027 34.378 17Z" fill="white"/>
<path fill-rule="evenodd" clip-rule="evenodd" d="M34.3799 13C34.9103 13 35.419 13.2107 35.7941 13.5858C36.1692 13.9609 36.3799 14.4696 36.3799 15V24.4H44.9999C45.2625 24.4 45.5226 24.4517 45.7652 24.5522C46.0079 24.6528 46.2284 24.8001 46.4141 24.9858C46.5998 25.1715 46.7471 25.392 46.8476 25.6346C46.9482 25.8773 46.9999 26.1374 46.9999 26.4C46.9999 26.6626 46.9482 26.9227 46.8476 27.1654C46.7471 27.408 46.5998 27.6285 46.4141 27.8142C46.2284 27.9999 46.0079 28.1472 45.7652 28.2478C45.5226 28.3483 45.2625 28.4 44.9999 28.4H34.3799C33.8494 28.4 33.3407 28.1893 32.9657 27.8142C32.5906 27.4391 32.3799 26.9304 32.3799 26.4V15C32.3799 14.4696 32.5906 13.9609 32.9657 13.5858C33.3407 13.2107 33.8494 13 34.3799 13Z" fill="white"/>
<rect x="1.25" y="1.25" width="61.5" height="61.5" rx="30.75" stroke="#001382" stroke-width="2.5"/>
</svg>
