<svg width="64" height="64" viewBox="0 0 64 64" fill="none" xmlns="http://www.w3.org/2000/svg">
<rect x="1.25" y="1.25" width="61.5" height="61.5" rx="30.75" fill="#000626"/>
<path d="M44.4688 18.9375H19.5312C18.4293 18.9387 17.3728 19.3769 16.5936 20.1561C15.8144 20.9353 15.3762 21.9918 15.375 23.0938V40.9062C15.3762 42.0082 15.8144 43.0647 16.5936 43.8439C17.3728 44.6231 18.4293 45.0613 19.5312 45.0625H44.4688C45.5707 45.0613 46.6272 44.6231 47.4064 43.8439C48.1856 43.0647 48.6238 42.0082 48.625 40.9062V23.0938C48.6238 21.9918 48.1856 20.9353 47.4064 20.1561C46.6272 19.3769 45.5707 18.9387 44.4688 18.9375V18.9375ZM43.4163 25.8124L32.7288 34.1249C32.5204 34.2869 32.264 34.3749 32 34.3749C31.736 34.3749 31.4796 34.2869 31.2712 34.1249L20.5837 25.8124C20.4581 25.7176 20.3526 25.5987 20.2734 25.4628C20.1941 25.3268 20.1427 25.1765 20.1221 25.0205C20.1014 24.8645 20.112 24.706 20.1532 24.5541C20.1943 24.4022 20.2652 24.2601 20.3618 24.1358C20.4584 24.0116 20.5787 23.9078 20.7158 23.8305C20.8528 23.7532 21.0039 23.7039 21.1601 23.6854C21.3164 23.667 21.4748 23.6798 21.626 23.7231C21.7773 23.7664 21.9185 23.8393 22.0413 23.9376L32 31.6831L41.9587 23.9376C42.2077 23.7496 42.5207 23.6671 42.8301 23.708C43.1394 23.749 43.4202 23.91 43.6118 24.1564C43.8033 24.4027 43.8902 24.7145 43.8536 25.0244C43.817 25.3343 43.66 25.6174 43.4163 25.8124Z" fill="white"/>
<rect x="1.25" y="1.25" width="61.5" height="61.5" rx="30.75" stroke="#001382" stroke-width="2.5"/>
</svg>
