<svg width="64" height="64" viewBox="0 0 64 64" fill="none" xmlns="http://www.w3.org/2000/svg">
<rect x="1.25" y="1.25" width="61.5" height="61.5" rx="30.75" fill="#000626"/>
<path d="M43.6667 17C44.5507 17 45.3986 17.3512 46.0237 17.9763C46.6488 18.6014 47 19.4493 47 20.3333V43.6667C47 44.5507 46.6488 45.3986 46.0237 46.0237C45.3986 46.6488 44.5507 47 43.6667 47H20.3333C19.4493 47 18.6014 46.6488 17.9763 46.0237C17.3512 45.3986 17 44.5507 17 43.6667V20.3333C17 19.4493 17.3512 18.6014 17.9763 17.9763C18.6014 17.3512 19.4493 17 20.3333 17H43.6667ZM42.8333 42.8333V34C42.8333 32.559 42.2609 31.177 41.2419 30.1581C40.223 29.1391 38.841 28.5667 37.4 28.5667C35.9833 28.5667 34.3333 29.4333 33.5333 30.7333V28.8833H28.8833V42.8333H33.5333V34.6167C33.5333 33.3333 34.5667 32.2833 35.85 32.2833C36.4688 32.2833 37.0623 32.5292 37.4999 32.9668C37.9375 33.4043 38.1833 33.9978 38.1833 34.6167V42.8333H42.8333ZM23.4667 26.2667C24.2093 26.2667 24.9215 25.9717 25.4466 25.4466C25.9717 24.9215 26.2667 24.2093 26.2667 23.4667C26.2667 21.9167 25.0167 20.65 23.4667 20.65C22.7196 20.65 22.0032 20.9468 21.475 21.475C20.9468 22.0032 20.65 22.7196 20.65 23.4667C20.65 25.0167 21.9167 26.2667 23.4667 26.2667ZM25.7833 42.8333V28.8833H21.1667V42.8333H25.7833Z" fill="white"/>
<rect x="1.25" y="1.25" width="61.5" height="61.5" rx="30.75" stroke="#001382" stroke-width="2.5"/>
</svg>
