<svg width="14" height="14" viewBox="0 0 14 14" fill="none" xmlns="http://www.w3.org/2000/svg">
<path d="M2.64645 7.35355C2.45118 7.15829 2.45118 6.84171 2.64645 6.64645L5.82843 3.46447C6.02369 3.2692 6.34027 3.2692 6.53553 3.46447C6.7308 3.65973 6.7308 3.97631 6.53553 4.17157L3.70711 7L6.53553 9.82843C6.7308 10.0237 6.7308 10.3403 6.53553 10.5355C6.34027 10.7308 6.02369 10.7308 5.82843 10.5355L2.64645 7.35355ZM11 6.5C11.2761 6.5 11.5 6.72386 11.5 7C11.5 7.27614 11.2761 7.5 11 7.5V6.5ZM3 6.5H11V7.5H3V6.5Z" fill="white"/>
</svg>
