<svg width="64" height="64" viewBox="0 0 64 64" fill="none" xmlns="http://www.w3.org/2000/svg">
<rect x="1.25" y="1.25" width="61.5" height="61.5" rx="30.75" fill="#000626"/>
<path d="M25 15.3335H39C44.3334 15.3335 48.6667 19.6668 48.6667 25.0002V39.0002C48.6667 41.5639 47.6483 44.0227 45.8354 45.8355C44.0226 47.6484 41.5638 48.6668 39 48.6668H25C19.6667 48.6668 15.3334 44.3335 15.3334 39.0002V25.0002C15.3334 22.4364 16.3518 19.9776 18.1647 18.1648C19.9775 16.3519 22.4363 15.3335 25 15.3335M24.6667 18.6668C23.0754 18.6668 21.5493 19.299 20.4241 20.4242C19.2988 21.5494 18.6667 23.0755 18.6667 24.6668V39.3335C18.6667 42.6502 21.35 45.3335 24.6667 45.3335H39.3334C40.9247 45.3335 42.4508 44.7014 43.576 43.5761C44.7012 42.4509 45.3334 40.9248 45.3334 39.3335V24.6668C45.3334 21.3502 42.65 18.6668 39.3334 18.6668H24.6667ZM40.75 21.1668C41.3026 21.1668 41.8325 21.3863 42.2232 21.777C42.6139 22.1677 42.8334 22.6976 42.8334 23.2502C42.8334 23.8027 42.6139 24.3326 42.2232 24.7233C41.8325 25.114 41.3026 25.3335 40.75 25.3335C40.1975 25.3335 39.6676 25.114 39.2769 24.7233C38.8862 24.3326 38.6667 23.8027 38.6667 23.2502C38.6667 22.6976 38.8862 22.1677 39.2769 21.777C39.6676 21.3863 40.1975 21.1668 40.75 21.1668ZM32 23.6668C34.2102 23.6668 36.3298 24.5448 37.8926 26.1076C39.4554 27.6704 40.3334 29.79 40.3334 32.0002C40.3334 34.2103 39.4554 36.3299 37.8926 37.8927C36.3298 39.4555 34.2102 40.3335 32 40.3335C29.7899 40.3335 27.6703 39.4555 26.1075 37.8927C24.5447 36.3299 23.6667 34.2103 23.6667 32.0002C23.6667 29.79 24.5447 27.6704 26.1075 26.1076C27.6703 24.5448 29.7899 23.6668 32 23.6668M32 27.0002C30.674 27.0002 29.4022 27.5269 28.4645 28.4646C27.5268 29.4023 27 30.6741 27 32.0002C27 33.3262 27.5268 34.598 28.4645 35.5357C29.4022 36.4734 30.674 37.0002 32 37.0002C33.3261 37.0002 34.5979 36.4734 35.5356 35.5357C36.4733 34.598 37 33.3262 37 32.0002C37 30.6741 36.4733 29.4023 35.5356 28.4646C34.5979 27.5269 33.3261 27.0002 32 27.0002Z" fill="white"/>
<rect x="1.25" y="1.25" width="61.5" height="61.5" rx="30.75" stroke="#001382" stroke-width="2.5"/>
</svg>
