<svg width="65" height="64" viewBox="0 0 65 64" fill="none" xmlns="http://www.w3.org/2000/svg">
<rect x="1.75" y="1.25" width="61.5" height="61.5" rx="30.75" fill="#000626"/>
<path d="M32.6352 18H32.8688C35.0267 18.0077 45.9605 18.0852 48.9086 18.8644C49.7998 19.1022 50.6119 19.5658 51.2638 20.2088C51.9156 20.8517 52.3844 21.6516 52.6232 22.5284C52.8883 23.5089 53.0747 24.8068 53.2007 26.146L53.227 26.4144L53.2847 27.0852L53.3057 27.3536C53.4764 29.712 53.4974 31.9207 53.5 32.4032V32.5968C53.4974 33.0973 53.4737 35.4557 53.2847 37.9122L53.2637 38.1831L53.2401 38.4515C53.1088 39.9274 52.9146 41.393 52.6232 42.4716C52.3851 43.3488 51.9166 44.149 51.2646 44.7921C50.6127 45.4352 49.8002 45.8985 48.9086 46.1356C45.8634 46.9407 34.289 46.9974 32.6851 47H32.3123C31.5011 47 28.1462 46.9845 24.6284 46.8658L24.1822 46.8503L23.9538 46.84L23.5049 46.822L23.056 46.8039C20.142 46.6775 17.3672 46.4736 16.0888 46.133C15.1975 45.8961 14.3852 45.4332 13.7333 44.7906C13.0814 44.148 12.6127 43.3483 12.3742 42.4716C12.0828 41.3956 11.8885 39.9274 11.7573 38.4515L11.7363 38.1805L11.7153 37.9122C11.5857 36.1638 11.5139 34.4117 11.5 32.6587L11.5 32.3413C11.5053 31.7865 11.5263 29.8694 11.668 27.7535L11.6864 27.4878L11.6943 27.3536L11.7153 27.0852L11.773 26.4144L11.7993 26.146C11.9253 24.8068 12.1117 23.5064 12.3768 22.5284C12.6149 21.6512 13.0834 20.851 13.7354 20.2079C14.3873 19.5648 15.1998 19.1015 16.0914 18.8644C17.3699 18.529 20.1447 18.3225 23.0586 18.1935L23.5049 18.1755L23.9564 18.16L24.1822 18.1522L24.6311 18.1342C27.1295 18.0552 29.6289 18.0113 32.1285 18.0026H32.6352V18ZM28.3011 26.2828V38.7147L39.2139 32.5013L28.3011 26.2828Z" fill="white"/>
<rect x="1.75" y="1.25" width="61.5" height="61.5" rx="30.75" stroke="#001382" stroke-width="2.5"/>
</svg>
